<svg xmlns="http://www.w3.org/2000/svg" xmlns:xlink="http://www.w3.org/1999/xlink" width="100" zoomAndPan="magnify" viewBox="0 0 75 74.999997" height="100" preserveAspectRatio="xMidYMid meet" version="1.0"><defs><g/><clipPath id="b4fd900c7b"><path d="M 0 0 L 74.523438 0 L 74.523438 75 L 0 75 Z M 0 0 " clip-rule="nonzero"/></clipPath><clipPath id="b1c7746ba1"><path d="M 3.515625 0 L 71.007812 0 C 72.949219 0 74.523438 1.574219 74.523438 3.515625 L 74.523438 71.484375 C 74.523438 73.425781 72.949219 75 71.007812 75 L 3.515625 75 C 1.574219 75 0 73.425781 0 71.484375 L 0 3.515625 C 0 1.574219 1.574219 0 3.515625 0 Z M 3.515625 0 " clip-rule="nonzero"/></clipPath></defs><g clip-path="url(#b4fd900c7b)"><g clip-path="url(#b1c7746ba1)"><path fill="#000000" d="M 0 0 L 74.523438 0 L 74.523438 75.105469 L 0 75.105469 Z M 0 0 " fill-opacity="1" fill-rule="nonzero"/></g></g><g fill="#ffffff" fill-opacity="1"><g transform="translate(12.786031, 67.979975)"><g><path d="M 24.4375 0.171875 L 4.171875 -11.65625 L 4.171875 -35.234375 L 24.4375 -46.984375 L 34.5625 -41.109375 L 34.5625 -58.90625 L 44.6875 -52.953125 L 44.6875 -11.65625 Z M 14.296875 -29.28125 L 14.296875 -17.53125 L 24.4375 -11.65625 L 34.5625 -17.53125 L 34.5625 -29.28125 L 24.4375 -35.234375 Z M 14.296875 -29.28125 "/></g></g></g></svg>