<svg xmlns="http://www.w3.org/2000/svg" xmlns:xlink="http://www.w3.org/1999/xlink" width="700" zoomAndPan="magnify" viewBox="0 0 525 97.5" height="130" preserveAspectRatio="xMidYMid meet" version="1.0"><defs><g/></defs><g fill="#ffffff" fill-opacity="1"><g transform="translate(-0.421217, 86.775594)"><g><path d="M 33.3125 0.234375 L 5.6875 -15.90625 L 5.6875 -48.046875 L 33.3125 -64.0625 L 47.125 -56.0625 L 47.125 -80.3125 L 60.9375 -72.1875 L 60.9375 -15.90625 Z M 19.5 -39.921875 L 19.5 -23.90625 L 33.3125 -15.90625 L 47.125 -23.90625 L 47.125 -39.921875 L 33.3125 -48.046875 Z M 19.5 -39.921875 "/></g></g></g><g fill="#ffffff" fill-opacity="1"><g transform="translate(66.309387, 86.775594)"><g><path d="M 35.40625 -15.09375 L 35.40625 -31.109375 L 46.890625 -39.109375 L 33.078125 -47.234375 L 19.375 -39.109375 L 19.375 -23.09375 L 46.890625 -6.96875 L 33.078125 1.046875 L 5.578125 -15.09375 L 5.578125 -47.234375 L 33.078125 -63.25 L 61.859375 -47.234375 L 61.859375 -31.109375 Z M 35.40625 -15.09375 "/></g></g></g><g fill="#ffffff" fill-opacity="1"><g transform="translate(133.968415, 86.775594)"><g><path d="M 35.40625 -15.09375 L 35.40625 -31.109375 L 46.890625 -39.109375 L 33.078125 -47.234375 L 19.375 -39.109375 L 19.375 -23.09375 L 46.890625 -6.96875 L 33.078125 1.046875 L 5.578125 -15.09375 L 5.578125 -47.234375 L 33.078125 -63.25 L 61.859375 -47.234375 L 61.859375 -31.109375 Z M 35.40625 -15.09375 "/></g></g></g><g fill="#ffffff" fill-opacity="1"><g transform="translate(201.627443, 86.775594)"><g><path d="M 5.796875 -63.609375 L 19.609375 -55.59375 L 33.421875 -63.609375 L 61.046875 -47.578125 L 61.046875 -7.3125 L 47.234375 0.703125 L 47.234375 -39.46875 L 33.421875 -47.578125 L 19.609375 -39.46875 L 19.609375 0.703125 L 5.796875 -7.3125 Z M 5.796875 -63.609375 "/></g></g></g><g fill="#ffffff" fill-opacity="1"><g transform="translate(268.358047, 86.775594)"><g><path d="M 89.71875 -14.96875 L 62.09375 1.046875 L 47.125 -6.96875 L 33.3125 1.046875 L 5.796875 -14.96875 L 5.796875 -64.53125 L 19.5 -55.359375 L 19.5 -23.21875 L 33.3125 -14.96875 L 40.28125 -19.609375 L 40.28125 -64.53125 L 55.25 -56.40625 L 55.25 -19.609375 L 62.09375 -14.96875 L 75.90625 -23.21875 L 75.90625 -63.375 L 89.71875 -55.359375 Z M 89.71875 -14.96875 "/></g></g></g><g fill="#ffffff" fill-opacity="1"><g transform="translate(363.869864, 86.775594)"><g><path d="M 20.3125 -54.890625 L 20.3125 1.390625 L 6.5 -6.609375 L 6.5 -62.90625 Z M 20.3125 -54.890625 "/></g></g></g><g fill="#ffffff" fill-opacity="1"><g transform="translate(390.562097, 86.775594)"><g><path d="M 19.5 -39.578125 L 33.3125 -31.5625 L 19.84375 -23.671875 C 17.445312 -25.140625 15.585938 -26.242188 14.265625 -26.984375 C 12.953125 -27.722656 11.734375 -28.398438 10.609375 -29.015625 C 9.492188 -29.628906 7.890625 -30.476562 5.796875 -31.5625 L 5.796875 -47.578125 L 33.3125 -63.71875 L 62.09375 -47.578125 L 47.8125 -40.28125 L 33.3125 -48.75 Z M 33.3125 -31.5625 L 47.359375 -39.8125 L 62.09375 -31.5625 L 62.09375 -15.3125 L 33.3125 0.703125 L 5.796875 -15.3125 L 19.5 -23.328125 L 34.234375 -15.09375 L 48.28125 -23.5625 Z M 33.3125 -31.5625 "/></g></g></g><g fill="#ffffff" fill-opacity="1"><g transform="translate(457.756918, 86.775594)"><g><path d="M 35.40625 -15.09375 L 35.40625 -31.109375 L 46.890625 -39.109375 L 33.078125 -47.234375 L 19.375 -39.109375 L 19.375 -23.09375 L 46.890625 -6.96875 L 33.078125 1.046875 L 5.578125 -15.09375 L 5.578125 -47.234375 L 33.078125 -63.25 L 61.859375 -47.234375 L 61.859375 -31.109375 Z M 35.40625 -15.09375 "/></g></g></g></svg>